<?xml version="1.0" encoding="utf-8"?>
<!-- Generator: Adobe Illustrator 21.0.0, SVG Export Plug-In . SVG Version: 6.00 Build 0)  -->
<svg version="1.1" id="Layer_1" xmlns="http://www.w3.org/2000/svg" xmlns:xlink="http://www.w3.org/1999/xlink" x="0px" y="0px"
	 viewBox="0 0 149.2 172.2" style="enable-background:new 0 0 149.2 172.2;" xml:space="preserve">
<style type="text/css">
	.st0{fill:#727272;}
</style>
<path class="st0" d="M143.9,0H114L56.7,68.3L45.2,54.7L91.2,0H64L31.7,38.5L20.2,24.9L41.1,0H5.3v7.1l0,0v35.6l11.4,13.6L5.3,69.9v0
	l0,0v32.4l11.4,13.6L5.3,129.6v0l0,0v42.7h35.8l-20.9-24.9l11.4-13.6L64,172.2h27.2l-45.9-54.7l11.4-13.6l57.3,68.3h29.8L71.6,86.1
	L143.9,0z M30.3,99.7L18.9,86.1l11.4-13.6l11.4,13.6L30.3,99.7z"/>
</svg>
